<?xml version="1.0" encoding="UTF-8" standalone="no"?>
<!-- Generator: Adobe Illustrator 19.2.0, SVG Export Plug-In . SVG Version: 6.00 Build 0)  -->

<svg
   xmlns:dc="http://purl.org/dc/elements/1.1/"
   xmlns:cc="http://creativecommons.org/ns#"
   xmlns:rdf="http://www.w3.org/1999/02/22-rdf-syntax-ns#"
   xmlns:svg="http://www.w3.org/2000/svg"
   xmlns="http://www.w3.org/2000/svg"
   xmlns:sodipodi="http://sodipodi.sourceforge.net/DTD/sodipodi-0.dtd"
   xmlns:inkscape="http://www.inkscape.org/namespaces/inkscape"
   version="1.1"
   id="Layer_1"
   x="0px"
   y="0px"
   viewBox="0 0 17.1 20.092766"
   xml:space="preserve"
   inkscape:version="0.91 r13725"
   sodipodi:docname="Graphicmama_icon-08.svg"
   width="17.1"
   height="20.092766"><metadata
     id="metadata7548"><rdf:RDF><cc:Work
         rdf:about=""><dc:format>image/svg+xml</dc:format><dc:type
           rdf:resource="http://purl.org/dc/dcmitype/StillImage" /><dc:title></dc:title></cc:Work></rdf:RDF></metadata><defs
     id="defs7546" /><sodipodi:namedview
     pagecolor="#ffffff"
     bordercolor="#666666"
     borderopacity="1"
     objecttolerance="10"
     gridtolerance="10"
     guidetolerance="10"
     inkscape:pageopacity="0"
     inkscape:pageshadow="2"
     inkscape:window-width="1920"
     inkscape:window-height="1137"
     id="namedview7544"
     showgrid="false"
     fit-margin-top="0"
     fit-margin-left="0"
     fit-margin-right="0"
     fit-margin-bottom="0"
     inkscape:zoom="6.9822487"
     inkscape:cx="8.85"
     inkscape:cy="10.35"
     inkscape:window-x="-8"
     inkscape:window-y="-8"
     inkscape:window-maximized="1"
     inkscape:current-layer="Layer_1" /><style
     type="text/css"
     id="style7524">
	.st0{fill:none;stroke:#444444;stroke-width:0.5;stroke-miterlimit:10;}
	.st1{fill:#444444;}
	.st2{fill:none;stroke:#444444;stroke-width:0.5;stroke-linecap:round;stroke-miterlimit:10;}
</style><g
     id="g7526"
     transform="translate(-7.15,-7.1572341)"><path
       class="st0"
       d="m 8.3,17.6 c 0,0.7 0.6,1.3 1.3,1.3 l 5.1,0 c 0.7,0 1.3,-0.6 1.3,-1.3 l 0,0 c 0,-0.7 -0.6,-1.3 -1.3,-1.3 l -5.1,0 C 8.9,16.2 8.3,16.8 8.3,17.6 l 0,0 z"
       id="path7528"
       inkscape:connector-curvature="0"
       style="fill:none;stroke:#444444;stroke-width:0.5;stroke-miterlimit:10" /><path
       class="st0"
       d="m 7.4,20.3 c 0,0.7 0.6,1.3 1.3,1.3 l 6.6,0 c 0.7,0 1.3,-0.6 1.3,-1.3 l 0,0 C 16.6,19.6 16,19 15.3,19 L 8.7,19 C 8,19 7.4,19.6 7.4,20.3 l 0,0 z"
       id="path7530"
       inkscape:connector-curvature="0"
       style="fill:none;stroke:#444444;stroke-width:0.5;stroke-miterlimit:10" /><path
       class="st0"
       d="m 8.3,23 c 0,0.7 0.6,1.3 1.3,1.3 l 4.9,0 c 0.7,0 1.3,-0.6 1.3,-1.3 l 0,0 c 0,-0.7 -0.6,-1.3 -1.3,-1.3 l -4.9,0 c -0.7,0 -1.3,0.6 -1.3,1.3 l 0,0 z"
       id="path7532"
       inkscape:connector-curvature="0"
       style="fill:none;stroke:#444444;stroke-width:0.5;stroke-miterlimit:10" /><path
       class="st0"
       d="m 9.4,25.7 c 0,0.7 0.6,1.3 1.3,1.3 l 0.6,0 2.1,0 c 0.7,0 1.3,-0.6 1.3,-1.3 l 0,0 c 0,-0.7 -0.6,-1.3 -1.3,-1.3 l -2.7,0 C 10,24.4 9.4,25 9.4,25.7 l 0,0 z"
       id="path7534"
       inkscape:connector-curvature="0"
       style="fill:none;stroke:#444444;stroke-width:0.5;stroke-miterlimit:10" /><path
       class="st0"
       d="M 21.4,16 C 19.9,14.8 19.6,13.4 19.6,13.4 L 18.7,9.6 C 18.6,9.3 18.4,9.1 18.1,9.1 l 0,0 c -1.2,0 -2.1,1 -2,2.2 l 0.1,1.5 0.5,3.5 -2.5,0"
       id="path7536"
       inkscape:connector-curvature="0"
       style="fill:none;stroke:#444444;stroke-width:0.5;stroke-miterlimit:10" /><path
       class="st0"
       d="m 13.4,27 5.1,0 c 3,0 5.5,-2.4 5.5,-5.4 0,-1.5 -0.6,-2.8 -1.5,-3.7"
       id="path7538"
       inkscape:connector-curvature="0"
       style="fill:none;stroke:#444444;stroke-width:0.5;stroke-miterlimit:10" /></g><line
     class="st0"
     x1="1.4500004"
     y1="2.5427659"
     x2="6.6500001"
     y2="3.5427659"
     id="line7540"
     style="fill:none;stroke:#444444;stroke-width:0.5;stroke-miterlimit:10" /><line
     class="st0"
     x1="5.7499995"
     y1="0.14276613"
     x2="7.3499999"
     y2="2.4427664"
     id="line7542"
     style="fill:none;stroke:#444444;stroke-width:0.5;stroke-miterlimit:10" /></svg>