<?xml version="1.0" encoding="UTF-8" standalone="no"?>
<!-- Generator: Adobe Illustrator 19.2.0, SVG Export Plug-In . SVG Version: 6.00 Build 0)  -->

<svg
   xmlns:dc="http://purl.org/dc/elements/1.1/"
   xmlns:cc="http://creativecommons.org/ns#"
   xmlns:rdf="http://www.w3.org/1999/02/22-rdf-syntax-ns#"
   xmlns:svg="http://www.w3.org/2000/svg"
   xmlns="http://www.w3.org/2000/svg"
   xmlns:sodipodi="http://sodipodi.sourceforge.net/DTD/sodipodi-0.dtd"
   xmlns:inkscape="http://www.inkscape.org/namespaces/inkscape"
   version="1.1"
   id="Layer_1"
   x="0px"
   y="0px"
   viewBox="0 0 24.819159 21.283734"
   xml:space="preserve"
   inkscape:version="0.91 r13725"
   sodipodi:docname="Graphicmama_icon-06.svg"
   width="24.819159"
   height="21.283733"><metadata
     id="metadata6418"><rdf:RDF><cc:Work
         rdf:about=""><dc:format>image/svg+xml</dc:format><dc:type
           rdf:resource="http://purl.org/dc/dcmitype/StillImage" /><dc:title></dc:title></cc:Work></rdf:RDF></metadata><defs
     id="defs6416" /><sodipodi:namedview
     pagecolor="#ffffff"
     bordercolor="#666666"
     borderopacity="1"
     objecttolerance="10"
     gridtolerance="10"
     guidetolerance="10"
     inkscape:pageopacity="0"
     inkscape:pageshadow="2"
     inkscape:window-width="1920"
     inkscape:window-height="1137"
     id="namedview6414"
     showgrid="false"
     fit-margin-top="0"
     fit-margin-left="0"
     fit-margin-right="0"
     fit-margin-bottom="0"
     inkscape:zoom="6.9822487"
     inkscape:cx="10.75"
     inkscape:cy="10.992848"
     inkscape:window-x="-8"
     inkscape:window-y="-8"
     inkscape:window-maximized="1"
     inkscape:current-layer="Layer_1" /><style
     type="text/css"
     id="style6402">
	.st0{fill:none;stroke:#444444;stroke-width:0.5;stroke-miterlimit:10;}
	.st1{fill:#444444;}
	.st2{fill:none;stroke:#444444;stroke-width:0.5;stroke-linecap:round;stroke-miterlimit:10;}
</style><g
     id="g6404"
     transform="translate(-5.25,-6.6091145)"><path
       class="st0"
       d="m 19.6,25.7 c -0.6,0.5 -1.3,1.1 -1.9,1.6 0,-2.8 0,-5.7 0,-8.5 2,2 4,4 5.9,5.9 -0.8,0.1 -1.6,0.2 -2.4,0.3 0.3,0.5 1.3,2.3 1.5,2.8"
       id="path6406"
       inkscape:connector-curvature="0"
       style="fill:none;stroke:#444444;stroke-width:0.5;stroke-miterlimit:10" /></g><g
     id="g6408"
     transform="translate(-5.25,-6.6091145)"><ellipse
       transform="matrix(0.1132,-0.9936,0.9936,0.1132,5.1848,24.964)"
       class="st0"
       cx="16.6"
       cy="9.6000004"
       rx="2.7"
       ry="2.5"
       id="ellipse6410"
       style="fill:none;stroke:#444444;stroke-width:0.5;stroke-miterlimit:10" /><path
       class="st0"
       d="m 19.9,20.8 0.1,-4.3 4.4,-1.1 2.1,-0.5 2.5,-0.6 c 0.6,-0.1 0.9,-0.7 0.8,-1.3 L 29.7,12.6 C 29.6,12 29,11.7 28.4,11.8 L 19.4,14 12.5,14 8,15.3 8,12.1 C 8,11.3 7.2,10.7 6.5,10.9 6,11 5.6,11.5 5.6,12 l -0.1,4.5 c 0,1 0.9,1.8 1.9,1.5 l 5.4,-1.4 0.6,8.3 4.3,0"
       id="path6412"
       inkscape:connector-curvature="0"
       style="fill:none;stroke:#444444;stroke-width:0.5;stroke-miterlimit:10" /></g></svg>