<?xml version="1.0" encoding="UTF-8" standalone="no"?>
<!-- Generator: Adobe Illustrator 19.2.0, SVG Export Plug-In . SVG Version: 6.00 Build 0)  -->

<svg
   xmlns:dc="http://purl.org/dc/elements/1.1/"
   xmlns:cc="http://creativecommons.org/ns#"
   xmlns:rdf="http://www.w3.org/1999/02/22-rdf-syntax-ns#"
   xmlns:svg="http://www.w3.org/2000/svg"
   xmlns="http://www.w3.org/2000/svg"
   xmlns:sodipodi="http://sodipodi.sourceforge.net/DTD/sodipodi-0.dtd"
   xmlns:inkscape="http://www.inkscape.org/namespaces/inkscape"
   version="1.1"
   id="Layer_1"
   x="0px"
   y="0px"
   viewBox="0 0 62.217593 50.005672"
   xml:space="preserve"
   inkscape:version="0.91 r13725"
   sodipodi:docname="ico-lipsyncing.svg"
   width="62.217594"
   height="50.005672"><metadata
     id="metadata5859"><rdf:RDF><cc:Work
         rdf:about=""><dc:format>image/svg+xml</dc:format><dc:type
           rdf:resource="http://purl.org/dc/dcmitype/StillImage" /><dc:title></dc:title></cc:Work></rdf:RDF></metadata><defs
     id="defs5857" /><sodipodi:namedview
     pagecolor="#ffffff"
     bordercolor="#666666"
     borderopacity="1"
     objecttolerance="10"
     gridtolerance="10"
     guidetolerance="10"
     inkscape:pageopacity="0"
     inkscape:pageshadow="2"
     inkscape:window-width="1920"
     inkscape:window-height="1137"
     id="namedview5855"
     showgrid="false"
     fit-margin-top="0"
     fit-margin-left="0"
     fit-margin-right="0"
     fit-margin-bottom="0"
     inkscape:zoom="6.9822487"
     inkscape:cx="-34.630747"
     inkscape:cy="9.3519886"
     inkscape:window-x="-8"
     inkscape:window-y="-8"
     inkscape:window-maximized="1"
     inkscape:current-layer="Layer_1" /><style
     type="text/css"
     id="style5845">
	.st0{fill:transparent;stroke:#444444;stroke-width:0.5;stroke-miterlimit:10;}
	.st1{fill:#444444;}
	.st2{fill:none;stroke:#444444;stroke-width:0.5;stroke-linecap:round;stroke-miterlimit:10;}
</style><path
     class="st0"
     d="m 1.2766803,30.33464 c 7.4670341,8.000915 13.3784357,18.882159 29.8681357,18.882159 16.4897,0 23.023355,-10.241171 29.868136,-18.882159 0,0 -7.77816,-4.160476 -14.934068,-9.601098 -6.533655,-5.120585 -11.822804,-1.92022 -14.000689,1.600183 -0.311126,0.640073 -0.622252,0.96011 -1.244505,0.96011 l 0,0 c -0.622253,0 -0.933379,-0.320037 -1.244506,-0.96011 C 27.722426,18.493286 22.12215,15.29292 15.588496,20.733542 9.0548408,26.174164 1.2766803,30.33464 1.2766803,30.33464 Z"
     id="path5847"
     inkscape:connector-curvature="0"
     style="fill:none;stroke:#444444;stroke-width:1.57775033;stroke-miterlimit:10" /><path
     class="st0"
     d="m 60.701826,30.33464 c 0,0 -10.889425,3.200366 -18.667585,-0.320037 -5.600276,-2.560292 -6.533655,5.120586 -17.423079,0 -5.289149,-2.560292 -9.956046,4.800549 -22.4011024,0.320037"
     id="path5849"
     inkscape:connector-curvature="0"
     style="fill:none;stroke:#444444;stroke-width:1.57775033;stroke-miterlimit:10" /><path
     class="st0"
     d="m 1.2766803,30.014603 c 0,0 14.0006887,8.000915 30.8015147,8.000915 16.800827,0 28.623631,-7.680878 28.623631,-7.680878"
     id="path5851"
     inkscape:connector-curvature="0"
     style="fill:none;stroke:#444444;stroke-width:1.57775033;stroke-miterlimit:10" /><path
     class="st0"
     d="m 22.12215,0.57123675 c 0,0 8.400414,8.00091485 18.978711,0.32003659"
     id="path5853"
     inkscape:connector-curvature="0"
     style="fill:none;stroke:#444444;stroke-width:1.57775033;stroke-miterlimit:10" /></svg>